<?xml version="1.0" standalone="no"?><!DOCTYPE svg PUBLIC "-//W3C//DTD SVG 1.1//EN" "http://www.w3.org/Graphics/SVG/1.1/DTD/svg11.dtd"><svg t="1731478832218" class="icon" viewBox="0 0 1024 1024" version="1.1" xmlns="http://www.w3.org/2000/svg" p-id="3903" xmlns:xlink="http://www.w3.org/1999/xlink" width="24" height="24"><path d="M316.8 784h377.6v140.8c0 42.24-34.56 76.8-76.8 76.8h-518.4c-42.24 0-76.8-34.56-76.8-76.8v-518.4c0-42.24 34.56-76.8 76.8-76.8h140.8v377.6c0 42.24 34.56 76.8 76.8 76.8z" p-id="3904"></path><path d="M1008 105.6v518.4c0 42.24-34.56 76.8-76.8 76.8h-518.4c-42.24 0-76.8-34.56-76.8-76.8v-518.4c0-42.24 34.56-76.8 76.8-76.8h518.4c42.24 0 76.8 34.56 76.8 76.8z" p-id="3905"></path></svg>