<?xml version="1.0" standalone="no"?><!DOCTYPE svg PUBLIC "-//W3C//DTD SVG 1.1//EN" "http://www.w3.org/Graphics/SVG/1.1/DTD/svg11.dtd"><svg t="1730432697403" class="icon" viewBox="0 0 1024 1024" version="1.1" xmlns="http://www.w3.org/2000/svg" p-id="6019" xmlns:xlink="http://www.w3.org/1999/xlink" width="24" height="24"><path d="M164.4 401.6c65.6 29.6 158 46.4 253.2 46.4 18 0 35.6-0.8 53.2-2-11.6-22.4-23.6-56-28.8-104.4-1.2-9.2-13.2-26-18.8-34-20.4-28-28.8-73.2-5.2-105.6 11.6-15.6 34.8-32.4 65.6-32.4 12.4 0 25.2 2.8 37.6 8.4 10.4 4 40.4 16.8 64 40.8 13.6 1.6 27.6 5.2 42.4 11.6 50.8 21.2 86.8 58.8 117.6 96.4V240.8h-1.2c-8.4-63.6-151.6-114-326.4-114-175.2 0-318 50.4-326.4 114h-0.4v106.4c8.8 15.6 32.8 36 73.6 54.4zM708.8 806.4c-45.6-27.6-83.6-59.2-114-93.6-53.2 12-113.6 18.8-177.2 18.8-136 0-256-30.8-327.2-78v123.2c0 66.4 146.4 120 327.2 120 142.8 0 264.4-33.6 308.8-80.4-6-3.2-11.6-6.4-17.6-10z" p-id="6020"></path><path d="M908.8 839.6c1.6 0.4 2.8 0.8 4.4 0.8 12 0 20.4-13.6 13.2-24.8-40.8-62.8-67.6-78.8-67.6-78.8 27.6-0.8 48-3.6 61.6-6 11.2-2 16.8-14.8 10.4-24.4C892 647.2 816 608 816 608c-12.8-44-26.4-88-42.4-131.2-12-32.4-24-65.6-45.2-93.2-32.8-42.4-68-87.2-119.2-108.8-10.8-4.4-22.8-8-34.8-8.8-1.2 0-9.6 0.4-11.6 0.4h-0.4c-17.2-28.8-58.8-44-58.8-44-7.2-3.2-13.6-4.8-19.2-4.8-17.6 0-26.8 12.8-26.8 12.8-10 14-3.2 37.2 5.6 49.2 12 16.4 25.2 36 27.6 56.8 9.2 82 39.2 110 39.2 110-37.2 102.4-21.2 154.8-3.6 179.6 3.2 4.4 8 6.8 12.8 6.8 6.4 0 12.4-3.6 15.2-10.4 8-21.2 21.6-33.6 21.6-33.6 59.6 159.2 250.8 228 332.8 250.8zM164.4 621.2c65.6 29.6 158 46.4 253.2 46.4 26 0 52-1.2 77.2-3.6-3.2-2.8-6-6.4-8.8-10-18.8-26.8-35.2-71.6-24-143.2-14.8 0.8-29.6 1.2-44.4 1.2-136 0-256-30.8-327.2-78v132.8c9.2 15.6 33.2 36 74 54.4z" p-id="6021"></path></svg>