<?xml version="1.0" standalone="no"?><!DOCTYPE svg PUBLIC "-//W3C//DTD SVG 1.1//EN" "http://www.w3.org/Graphics/SVG/1.1/DTD/svg11.dtd"><svg t="1731684633162" class="icon" viewBox="0 0 1024 1024" version="1.1" xmlns="http://www.w3.org/2000/svg" p-id="3551" xmlns:xlink="http://www.w3.org/1999/xlink" width="128" height="128"><path d="M571.448889 655.36H399.815111v164.977778h171.633778v-164.977778z m0-113.777778V373.930667H399.815111V541.582222h171.633778z m-423.992889 113.777778v164.977778h138.581333v-164.977778H147.456z m0-113.777778h138.581333V373.930667H147.456V541.582222zM824.888889 654.961778a28.615111 28.615111 0 0 1-4.835556 0.398222h-134.826666v164.977778H824.888889v-165.376z m0-112.981334V373.930667h-139.662222V541.582222h134.826666c1.649778 0 3.242667 0.170667 4.835556 0.398222zM128 113.777778h711.111111c39.253333 0 71.111111 31.857778 71.111111 71.111111v654.222222c0 39.253333-31.857778 71.111111-71.111111 71.111111H128C88.746667 910.222222 56.888889 878.364444 56.888889 839.111111V184.888889C56.888889 145.635556 88.746667 113.777778 128 113.777778z" p-id="3552"></path></svg>